<?xml version="1.0" standalone="no"?>
<!DOCTYPE svg PUBLIC "-//W3C//DTD SVG 20010904//EN"
 "http://www.w3.org/TR/2001/REC-SVG-20010904/DTD/svg10.dtd">
<svg version="1.0" xmlns="http://www.w3.org/2000/svg"
 width="200.000000pt" height="200.000000pt" viewBox="0 0 200.000000 200.000000"
 preserveAspectRatio="xMidYMid meet">
<metadata>
Created by potrace 1.14, written by Peter Selinger 2001-2017
</metadata>
<g transform="translate(0.000000,200.000000) scale(0.100000,-0.100000)"
fill="#000000" stroke="none">
<path d="M794 1296 c-11 -29 1 -109 18 -120 21 -12 58 17 58 46 0 15 8 18 45
18 l45 0 0 -164 0 -165 -31 -3 c-39 -4 -59 -29 -40 -52 11 -13 35 -16 117 -16
95 0 103 2 109 20 9 28 -11 50 -46 50 l-29 0 0 165 0 165 44 0 c40 0 44 -2 49
-29 7 -34 40 -49 63 -30 11 9 14 28 12 68 l-3 56 -203 3 c-166 2 -203 0 -208
-12z"/>
<path d="M809 744 c-9 -11 -10 -20 -2 -32 9 -15 33 -17 193 -17 160 0 184 2
193 17 8 12 7 21 -2 32 -20 24 -362 24 -382 0z"/>
</g>
</svg>
